<svg width="16" height="16" viewBox="0 0 16 16" fill="none" xmlns="http://www.w3.org/2000/svg">
<g clip-path="url(#clip0)">
<path d="M15.6894 12.7226L13.9156 11.54L12.3388 10.4889C12.0345 10.2865 11.6255 10.3528 11.4008 10.6412L10.4251 11.8955C10.2155 12.1677 9.83852 12.246 9.53796 12.0795C8.8759 11.7113 8.093 11.3645 6.36559 9.63489C4.63817 7.90525 4.2892 7.12457 3.92093 6.46252C3.75452 6.16196 3.83274 5.78493 4.10493 5.57537L5.35925 4.59967C5.6476 4.37504 5.714 3.96608 5.51153 3.66174L4.4928 2.13348L3.2779 0.311122C3.07112 0.000938136 2.65719 -0.0921858 2.33751 0.0995307L0.9364 0.940083C0.557748 1.16317 0.279407 1.52342 0.159034 1.94613C-0.224118 3.34309 -0.301367 6.42471 4.63733 11.3634C9.57602 16.3021 12.6574 16.2246 14.0543 15.8414C14.477 15.7211 14.8373 15.4427 15.0604 15.064L15.9009 13.663C16.0927 13.3433 15.9995 12.9294 15.6894 12.7226Z" fill="white"/>
<path d="M9.1033 2.48262C11.6921 2.4855 13.79 4.58341 13.7929 7.17222C13.7929 7.32456 13.9164 7.44809 14.0688 7.44809C14.2211 7.44809 14.3446 7.32459 14.3446 7.17222C14.3415 4.27885 11.9967 1.9341 9.10333 1.93091C8.95099 1.93091 8.82746 2.05441 8.82746 2.20678C8.82743 2.35909 8.95093 2.48262 9.1033 2.48262Z" fill="white"/>
<path d="M9.1033 4.13768C10.7784 4.13965 12.1358 5.49707 12.1377 7.17211C12.1377 7.32446 12.2612 7.44799 12.4136 7.44799C12.5659 7.44799 12.6895 7.32449 12.6895 7.17211C12.6872 5.19248 11.083 3.58822 9.1033 3.58594C8.95096 3.58594 8.82743 3.70944 8.82743 3.86181C8.82743 4.01418 8.95093 4.13768 9.1033 4.13768Z" fill="white"/>
<path d="M9.1033 5.79292C9.8647 5.79383 10.4817 6.41082 10.4826 7.17222C10.4826 7.32456 10.6061 7.44809 10.7585 7.44809C10.9108 7.44809 11.0343 7.32459 11.0343 7.17222C11.0331 6.10626 10.1693 5.24243 9.10333 5.24121C8.95099 5.24121 8.82746 5.36471 8.82746 5.51708C8.82743 5.66942 8.95093 5.79292 9.1033 5.79292Z" fill="white"/>
</g>
<defs>
<clipPath id="clip0">
<rect width="16" height="16" fill="white"/>
</clipPath>
</defs>
</svg>
